<?xml version="1.0" encoding="UTF-8"?>
<mxfile host="app.diagrams.net" agent="Mozilla/5.0 (Windows NT 10.0; Win64; x64) AppleWebKit/537.36 (KHTML, like Gecko) Chrome/141.0.0.0 Safari/537.36" version="28.2.7">
  <diagram name="PÃ¡gina-1" id="9ok8MEljxW5F2zrVntCH">
    <mxGraphModel dx="2875" dy="2181" grid="1" gridSize="10" guides="1" tooltips="1" connect="1" arrows="1" fold="1" page="1" pageScale="1" pageWidth="827" pageHeight="1169" math="0" shadow="0">
      <root>
        <mxCell id="0" />
        <mxCell id="1" parent="0" />
        <mxCell id="NNU6m7FlNhpVA4dN36mf-117" style="edgeStyle=orthogonalEdgeStyle;rounded=0;orthogonalLoop=1;jettySize=auto;html=1;entryX=0.5;entryY=0;entryDx=0;entryDy=0;endArrow=none;endFill=0;" parent="1" source="vcyXnpdRyyTq258CwsLV-4" target="NNU6m7FlNhpVA4dN36mf-50" edge="1">
          <mxGeometry relative="1" as="geometry" />
        </mxCell>
        <mxCell id="vcyXnpdRyyTq258CwsLV-4" value="patients&amp;nbsp;" style="whiteSpace=wrap;html=1;align=center;labelBackgroundColor=none;fontStyle=1" parent="1" vertex="1">
          <mxGeometry x="-10" y="-35" width="100" height="40" as="geometry" />
        </mxCell>
        <mxCell id="vcyXnpdRyyTq258CwsLV-5" value="official_documents" style="ellipse;shape=doubleEllipse;margin=3;whiteSpace=wrap;html=1;align=center;labelBackgroundColor=none;" parent="1" vertex="1">
          <mxGeometry x="-55" y="-205" width="130" height="35" as="geometry" />
        </mxCell>
        <mxCell id="NNU6m7FlNhpVA4dN36mf-86" style="edgeStyle=orthogonalEdgeStyle;rounded=0;orthogonalLoop=1;jettySize=auto;html=1;endArrow=none;endFill=0;labelBackgroundColor=none;fontColor=default;" parent="1" source="vcyXnpdRyyTq258CwsLV-8" edge="1">
          <mxGeometry relative="1" as="geometry">
            <mxPoint x="40" y="5" as="targetPoint" />
          </mxGeometry>
        </mxCell>
        <mxCell id="vcyXnpdRyyTq258CwsLV-8" value="adress" style="ellipse;shape=doubleEllipse;margin=3;whiteSpace=wrap;html=1;align=center;labelBackgroundColor=none;" parent="1" vertex="1">
          <mxGeometry x="-160" y="5" width="110" height="40" as="geometry" />
        </mxCell>
        <mxCell id="vcyXnpdRyyTq258CwsLV-11" value="telephones" style="ellipse;shape=doubleEllipse;margin=3;whiteSpace=wrap;html=1;align=center;labelBackgroundColor=none;" parent="1" vertex="1">
          <mxGeometry x="-240" y="-30" width="100" height="40" as="geometry" />
        </mxCell>
        <mxCell id="NNU6m7FlNhpVA4dN36mf-89" style="edgeStyle=orthogonalEdgeStyle;rounded=0;orthogonalLoop=1;jettySize=auto;html=1;endArrow=none;endFill=0;exitX=0.999;exitY=0.426;exitDx=0;exitDy=0;exitPerimeter=0;labelBackgroundColor=none;fontColor=default;" parent="1" source="vcyXnpdRyyTq258CwsLV-18" edge="1">
          <mxGeometry relative="1" as="geometry">
            <mxPoint x="10" y="5" as="targetPoint" />
            <mxPoint x="-50" y="85.00000000000023" as="sourcePoint" />
          </mxGeometry>
        </mxCell>
        <mxCell id="vcyXnpdRyyTq258CwsLV-18" value="emergency_contact" style="ellipse;shape=doubleEllipse;margin=3;whiteSpace=wrap;html=1;align=center;labelBackgroundColor=none;" parent="1" vertex="1">
          <mxGeometry x="-190" y="60" width="140" height="40" as="geometry" />
        </mxCell>
        <mxCell id="NNU6m7FlNhpVA4dN36mf-61" style="edgeStyle=orthogonalEdgeStyle;rounded=0;orthogonalLoop=1;jettySize=auto;html=1;endArrow=none;endFill=0;labelBackgroundColor=none;fontColor=default;" parent="1" source="NNU6m7FlNhpVA4dN36mf-1" target="NNU6m7FlNhpVA4dN36mf-59" edge="1">
          <mxGeometry relative="1" as="geometry" />
        </mxCell>
        <mxCell id="NNU6m7FlNhpVA4dN36mf-1" value="doctors" style="whiteSpace=wrap;html=1;align=center;labelBackgroundColor=none;" parent="1" vertex="1">
          <mxGeometry x="-10" y="660" width="100" height="40" as="geometry" />
        </mxCell>
        <mxCell id="NNU6m7FlNhpVA4dN36mf-55" style="edgeStyle=orthogonalEdgeStyle;rounded=0;orthogonalLoop=1;jettySize=auto;html=1;exitX=0;exitY=0.5;exitDx=0;exitDy=0;entryX=0.75;entryY=0;entryDx=0;entryDy=0;endArrow=none;endFill=0;labelBackgroundColor=none;fontColor=default;" parent="1" source="NNU6m7FlNhpVA4dN36mf-5" target="NNU6m7FlNhpVA4dN36mf-53" edge="1">
          <mxGeometry relative="1" as="geometry" />
        </mxCell>
        <mxCell id="NNU6m7FlNhpVA4dN36mf-5" value="reason" style="ellipse;whiteSpace=wrap;html=1;align=center;labelBackgroundColor=none;" parent="1" vertex="1">
          <mxGeometry x="145" y="300" width="100" height="40" as="geometry" />
        </mxCell>
        <mxCell id="NNU6m7FlNhpVA4dN36mf-56" style="edgeStyle=orthogonalEdgeStyle;rounded=0;orthogonalLoop=1;jettySize=auto;html=1;entryX=1;entryY=0;entryDx=0;entryDy=0;endArrow=none;endFill=0;labelBackgroundColor=none;fontColor=default;" parent="1" source="NNU6m7FlNhpVA4dN36mf-6" target="NNU6m7FlNhpVA4dN36mf-53" edge="1">
          <mxGeometry relative="1" as="geometry" />
        </mxCell>
        <mxCell id="NNU6m7FlNhpVA4dN36mf-6" value="creation_date" style="ellipse;whiteSpace=wrap;html=1;align=center;labelBackgroundColor=none;" parent="1" vertex="1">
          <mxGeometry x="250" y="330" width="100" height="40" as="geometry" />
        </mxCell>
        <mxCell id="NNU6m7FlNhpVA4dN36mf-58" style="edgeStyle=orthogonalEdgeStyle;rounded=0;orthogonalLoop=1;jettySize=auto;html=1;entryX=-0.004;entryY=0.139;entryDx=0;entryDy=0;endArrow=none;endFill=0;labelBackgroundColor=none;fontColor=default;entryPerimeter=0;" parent="1" source="NNU6m7FlNhpVA4dN36mf-7" target="NNU6m7FlNhpVA4dN36mf-53" edge="1">
          <mxGeometry relative="1" as="geometry" />
        </mxCell>
        <mxCell id="NNU6m7FlNhpVA4dN36mf-7" value="attention_type" style="ellipse;whiteSpace=wrap;html=1;align=center;labelBackgroundColor=none;" parent="1" vertex="1">
          <mxGeometry x="-190" y="340" width="100" height="40" as="geometry" />
        </mxCell>
        <mxCell id="NNU6m7FlNhpVA4dN36mf-57" style="edgeStyle=orthogonalEdgeStyle;rounded=0;orthogonalLoop=1;jettySize=auto;html=1;entryX=0.25;entryY=0;entryDx=0;entryDy=0;endArrow=none;endFill=0;labelBackgroundColor=none;fontColor=default;exitX=1;exitY=0.5;exitDx=0;exitDy=0;" parent="1" source="NNU6m7FlNhpVA4dN36mf-9" target="NNU6m7FlNhpVA4dN36mf-53" edge="1">
          <mxGeometry relative="1" as="geometry" />
        </mxCell>
        <mxCell id="NNU6m7FlNhpVA4dN36mf-9" value="state" style="ellipse;whiteSpace=wrap;html=1;align=center;labelBackgroundColor=none;" parent="1" vertex="1">
          <mxGeometry x="-120" y="270" width="100" height="40" as="geometry" />
        </mxCell>
        <mxCell id="NNU6m7FlNhpVA4dN36mf-16" style="edgeStyle=orthogonalEdgeStyle;rounded=0;orthogonalLoop=1;jettySize=auto;html=1;entryX=0.893;entryY=0.013;entryDx=0;entryDy=0;endArrow=none;endFill=0;labelBackgroundColor=none;fontColor=default;entryPerimeter=0;" parent="1" source="NNU6m7FlNhpVA4dN36mf-14" target="NNU6m7FlNhpVA4dN36mf-1" edge="1">
          <mxGeometry relative="1" as="geometry" />
        </mxCell>
        <mxCell id="NNU6m7FlNhpVA4dN36mf-14" value="tuition_number" style="ellipse;whiteSpace=wrap;html=1;align=center;labelBackgroundColor=none;" parent="1" vertex="1">
          <mxGeometry x="110" y="555" width="130" height="40" as="geometry" />
        </mxCell>
        <mxCell id="NNU6m7FlNhpVA4dN36mf-15" value="asset" style="ellipse;whiteSpace=wrap;html=1;align=center;labelBackgroundColor=none;" parent="1" vertex="1">
          <mxGeometry x="160" y="595" width="140" height="40" as="geometry" />
        </mxCell>
        <mxCell id="NNU6m7FlNhpVA4dN36mf-17" style="edgeStyle=orthogonalEdgeStyle;rounded=0;orthogonalLoop=1;jettySize=auto;html=1;entryX=1;entryY=0;entryDx=0;entryDy=0;endArrow=none;endFill=0;labelBackgroundColor=none;fontColor=default;" parent="1" source="NNU6m7FlNhpVA4dN36mf-15" target="NNU6m7FlNhpVA4dN36mf-1" edge="1">
          <mxGeometry relative="1" as="geometry" />
        </mxCell>
        <mxCell id="NNU6m7FlNhpVA4dN36mf-19" style="edgeStyle=orthogonalEdgeStyle;rounded=0;orthogonalLoop=1;jettySize=auto;html=1;endArrow=none;endFill=0;labelBackgroundColor=none;fontColor=default;exitX=0.5;exitY=1;exitDx=0;exitDy=0;" parent="1" source="NNU6m7FlNhpVA4dN36mf-18" edge="1">
          <mxGeometry relative="1" as="geometry">
            <mxPoint x="10" y="660" as="targetPoint" />
            <Array as="points">
              <mxPoint x="-130" y="650" />
              <mxPoint x="10" y="650" />
            </Array>
          </mxGeometry>
        </mxCell>
        <mxCell id="NNU6m7FlNhpVA4dN36mf-18" value="speciality" style="ellipse;shape=doubleEllipse;margin=3;whiteSpace=wrap;html=1;align=center;labelBackgroundColor=none;" parent="1" vertex="1">
          <mxGeometry x="-180" y="575" width="100" height="40" as="geometry" />
        </mxCell>
        <mxCell id="NNU6m7FlNhpVA4dN36mf-21" style="edgeStyle=orthogonalEdgeStyle;rounded=0;orthogonalLoop=1;jettySize=auto;html=1;entryX=0;entryY=0;entryDx=0;entryDy=0;endArrow=none;endFill=0;labelBackgroundColor=none;fontColor=default;" parent="1" source="NNU6m7FlNhpVA4dN36mf-20" target="NNU6m7FlNhpVA4dN36mf-1" edge="1">
          <mxGeometry relative="1" as="geometry">
            <Array as="points">
              <mxPoint x="-40" y="660" />
              <mxPoint x="-40" y="660" />
            </Array>
          </mxGeometry>
        </mxCell>
        <mxCell id="NNU6m7FlNhpVA4dN36mf-20" value="telephones" style="ellipse;shape=doubleEllipse;margin=3;whiteSpace=wrap;html=1;align=center;labelBackgroundColor=none;" parent="1" vertex="1">
          <mxGeometry x="-240" y="640" width="100" height="40" as="geometry" />
        </mxCell>
        <mxCell id="NNU6m7FlNhpVA4dN36mf-146" style="edgeStyle=orthogonalEdgeStyle;rounded=0;orthogonalLoop=1;jettySize=auto;html=1;entryX=0;entryY=0.5;entryDx=0;entryDy=0;exitX=1;exitY=0.5;exitDx=0;exitDy=0;endArrow=none;endFill=0;" parent="1" source="NNU6m7FlNhpVA4dN36mf-22" target="NNU6m7FlNhpVA4dN36mf-1" edge="1">
          <mxGeometry relative="1" as="geometry">
            <Array as="points">
              <mxPoint x="-160" y="680" />
            </Array>
          </mxGeometry>
        </mxCell>
        <mxCell id="NNU6m7FlNhpVA4dN36mf-22" value="practices_adress" style="ellipse;shape=doubleEllipse;margin=3;whiteSpace=wrap;html=1;align=center;labelBackgroundColor=none;" parent="1" vertex="1">
          <mxGeometry x="-290" y="690" width="130" height="50" as="geometry" />
        </mxCell>
        <mxCell id="NNU6m7FlNhpVA4dN36mf-25" value="1:n" style="text;html=1;whiteSpace=wrap;strokeColor=none;fillColor=none;align=center;verticalAlign=middle;rounded=0;labelBackgroundColor=none;" parent="1" vertex="1">
          <mxGeometry x="50" y="70" width="40" height="20" as="geometry" />
        </mxCell>
        <mxCell id="NNU6m7FlNhpVA4dN36mf-30" value="clinical_stories" style="whiteSpace=wrap;html=1;align=center;labelBackgroundColor=none;" parent="1" vertex="1">
          <mxGeometry x="570" y="660" width="100" height="40" as="geometry" />
        </mxCell>
        <mxCell id="NNU6m7FlNhpVA4dN36mf-36" value="patients_id" style="ellipse;whiteSpace=wrap;html=1;align=center;fontStyle=4;labelBackgroundColor=none;" parent="1" vertex="1">
          <mxGeometry x="130" y="20" width="100" height="40" as="geometry" />
        </mxCell>
        <mxCell id="NNU6m7FlNhpVA4dN36mf-41" style="edgeStyle=orthogonalEdgeStyle;rounded=0;orthogonalLoop=1;jettySize=auto;html=1;entryX=0.091;entryY=-0.019;entryDx=0;entryDy=0;entryPerimeter=0;endArrow=none;endFill=0;exitX=1;exitY=0.5;exitDx=0;exitDy=0;labelBackgroundColor=none;fontColor=default;" parent="1" source="NNU6m7FlNhpVA4dN36mf-42" target="NNU6m7FlNhpVA4dN36mf-1" edge="1">
          <mxGeometry relative="1" as="geometry">
            <mxPoint x="39.99994897956594" y="760.0285714285714" as="sourcePoint" />
          </mxGeometry>
        </mxCell>
        <mxCell id="NNU6m7FlNhpVA4dN36mf-42" value="doctor_id" style="ellipse;whiteSpace=wrap;html=1;align=center;fontStyle=4;labelBackgroundColor=none;" parent="1" vertex="1">
          <mxGeometry x="-90" y="600" width="100" height="40" as="geometry" />
        </mxCell>
        <mxCell id="NNU6m7FlNhpVA4dN36mf-43" value="1:1" style="text;html=1;whiteSpace=wrap;strokeColor=none;fillColor=none;align=center;verticalAlign=middle;rounded=0;labelBackgroundColor=none;" parent="1" vertex="1">
          <mxGeometry x="460" y="650" width="60" height="30" as="geometry" />
        </mxCell>
        <mxCell id="NNU6m7FlNhpVA4dN36mf-54" style="edgeStyle=orthogonalEdgeStyle;rounded=0;orthogonalLoop=1;jettySize=auto;html=1;exitX=0.5;exitY=1;exitDx=0;exitDy=0;entryX=0.5;entryY=0;entryDx=0;entryDy=0;endArrow=none;endFill=0;labelBackgroundColor=none;fontColor=default;" parent="1" source="NNU6m7FlNhpVA4dN36mf-50" target="NNU6m7FlNhpVA4dN36mf-53" edge="1">
          <mxGeometry relative="1" as="geometry" />
        </mxCell>
        <mxCell id="NNU6m7FlNhpVA4dN36mf-50" value="have" style="shape=rhombus;perimeter=rhombusPerimeter;whiteSpace=wrap;html=1;align=center;labelBackgroundColor=none;fontStyle=1" parent="1" vertex="1">
          <mxGeometry x="-20" y="110" width="120" height="60" as="geometry" />
        </mxCell>
        <mxCell id="NNU6m7FlNhpVA4dN36mf-53" value="quotes" style="whiteSpace=wrap;html=1;align=center;labelBackgroundColor=none;fontStyle=1" parent="1" vertex="1">
          <mxGeometry x="-10" y="370" width="100" height="40" as="geometry" />
        </mxCell>
        <mxCell id="NNU6m7FlNhpVA4dN36mf-60" style="edgeStyle=orthogonalEdgeStyle;rounded=0;orthogonalLoop=1;jettySize=auto;html=1;entryX=0.5;entryY=1;entryDx=0;entryDy=0;endArrow=none;endFill=0;labelBackgroundColor=none;fontColor=default;" parent="1" source="NNU6m7FlNhpVA4dN36mf-59" target="NNU6m7FlNhpVA4dN36mf-53" edge="1">
          <mxGeometry relative="1" as="geometry" />
        </mxCell>
        <mxCell id="NNU6m7FlNhpVA4dN36mf-59" value="has" style="shape=rhombus;perimeter=rhombusPerimeter;whiteSpace=wrap;html=1;align=center;labelBackgroundColor=none;" parent="1" vertex="1">
          <mxGeometry x="-20" y="510" width="120" height="60" as="geometry" />
        </mxCell>
        <mxCell id="NNU6m7FlNhpVA4dN36mf-62" style="edgeStyle=orthogonalEdgeStyle;rounded=0;orthogonalLoop=1;jettySize=auto;html=1;exitX=0.5;exitY=1;exitDx=0;exitDy=0;labelBackgroundColor=none;fontColor=default;" parent="1" source="NNU6m7FlNhpVA4dN36mf-20" target="NNU6m7FlNhpVA4dN36mf-20" edge="1">
          <mxGeometry relative="1" as="geometry" />
        </mxCell>
        <mxCell id="NNU6m7FlNhpVA4dN36mf-83" style="edgeStyle=orthogonalEdgeStyle;rounded=0;orthogonalLoop=1;jettySize=auto;html=1;entryX=0.867;entryY=0.991;entryDx=0;entryDy=0;entryPerimeter=0;endArrow=none;endFill=0;labelBackgroundColor=none;fontColor=default;" parent="1" source="NNU6m7FlNhpVA4dN36mf-36" target="vcyXnpdRyyTq258CwsLV-4" edge="1">
          <mxGeometry relative="1" as="geometry" />
        </mxCell>
        <mxCell id="NNU6m7FlNhpVA4dN36mf-90" style="edgeStyle=orthogonalEdgeStyle;rounded=0;orthogonalLoop=1;jettySize=auto;html=1;entryX=-0.01;entryY=0.627;entryDx=0;entryDy=0;entryPerimeter=0;endArrow=none;endFill=0;labelBackgroundColor=none;fontColor=default;" parent="1" source="vcyXnpdRyyTq258CwsLV-11" target="vcyXnpdRyyTq258CwsLV-4" edge="1">
          <mxGeometry relative="1" as="geometry" />
        </mxCell>
        <mxCell id="NNU6m7FlNhpVA4dN36mf-92" value="email_adress" style="ellipse;whiteSpace=wrap;html=1;align=center;labelBackgroundColor=none;" parent="1" vertex="1">
          <mxGeometry x="-170" y="-75" width="100" height="40" as="geometry" />
        </mxCell>
        <mxCell id="NNU6m7FlNhpVA4dN36mf-93" style="edgeStyle=orthogonalEdgeStyle;rounded=0;orthogonalLoop=1;jettySize=auto;html=1;labelBackgroundColor=none;fontColor=default;endArrow=none;endFill=0;entryX=0;entryY=0;entryDx=0;entryDy=0;" parent="1" source="NNU6m7FlNhpVA4dN36mf-92" target="vcyXnpdRyyTq258CwsLV-4" edge="1">
          <mxGeometry relative="1" as="geometry">
            <mxPoint x="-10" y="-50" as="targetPoint" />
            <Array as="points">
              <mxPoint x="-10" y="-55" />
            </Array>
          </mxGeometry>
        </mxCell>
        <mxCell id="NNU6m7FlNhpVA4dN36mf-96" value="asset" style="ellipse;whiteSpace=wrap;html=1;align=center;" parent="1" vertex="1">
          <mxGeometry x="-170" y="-125" width="100" height="40" as="geometry" />
        </mxCell>
        <mxCell id="NNU6m7FlNhpVA4dN36mf-97" style="edgeStyle=orthogonalEdgeStyle;rounded=0;orthogonalLoop=1;jettySize=auto;html=1;endArrow=none;endFill=0;entryX=0.098;entryY=-0.002;entryDx=0;entryDy=0;entryPerimeter=0;" parent="1" source="NNU6m7FlNhpVA4dN36mf-96" target="vcyXnpdRyyTq258CwsLV-4" edge="1">
          <mxGeometry relative="1" as="geometry">
            <mxPoint y="-40" as="targetPoint" />
          </mxGeometry>
        </mxCell>
        <mxCell id="NNU6m7FlNhpVA4dN36mf-100" style="edgeStyle=orthogonalEdgeStyle;rounded=0;orthogonalLoop=1;jettySize=auto;html=1;entryX=0.25;entryY=0;entryDx=0;entryDy=0;endArrow=none;endFill=0;" parent="1" source="NNU6m7FlNhpVA4dN36mf-99" target="vcyXnpdRyyTq258CwsLV-4" edge="1">
          <mxGeometry relative="1" as="geometry" />
        </mxCell>
        <mxCell id="NNU6m7FlNhpVA4dN36mf-99" value="date_birth" style="ellipse;whiteSpace=wrap;html=1;align=center;" parent="1" vertex="1">
          <mxGeometry x="-150" y="-170" width="100" height="40" as="geometry" />
        </mxCell>
        <mxCell id="NNU6m7FlNhpVA4dN36mf-101" style="edgeStyle=orthogonalEdgeStyle;rounded=0;orthogonalLoop=1;jettySize=auto;html=1;exitX=0.5;exitY=1;exitDx=0;exitDy=0;endArrow=none;endFill=0;" parent="1" source="vcyXnpdRyyTq258CwsLV-5" edge="1">
          <mxGeometry relative="1" as="geometry">
            <mxPoint x="30" y="-36" as="targetPoint" />
            <Array as="points">
              <mxPoint x="30" y="-170" />
              <mxPoint x="30" y="-36" />
            </Array>
          </mxGeometry>
        </mxCell>
        <mxCell id="NNU6m7FlNhpVA4dN36mf-102" value="hour" style="ellipse;shape=doubleEllipse;margin=3;whiteSpace=wrap;html=1;align=center;" parent="1" vertex="1">
          <mxGeometry x="40" y="-170" width="100" height="40" as="geometry" />
        </mxCell>
        <mxCell id="NNU6m7FlNhpVA4dN36mf-103" style="edgeStyle=orthogonalEdgeStyle;rounded=0;orthogonalLoop=1;jettySize=auto;html=1;entryX=0.578;entryY=-0.023;entryDx=0;entryDy=0;entryPerimeter=0;exitX=0.273;exitY=0.959;exitDx=0;exitDy=0;exitPerimeter=0;endArrow=none;endFill=0;" parent="1" source="NNU6m7FlNhpVA4dN36mf-102" target="vcyXnpdRyyTq258CwsLV-4" edge="1">
          <mxGeometry relative="1" as="geometry">
            <mxPoint x="70" y="-144.74969722017667" as="sourcePoint" />
            <mxPoint x="47.80000000000018" y="-45.00000000000007" as="targetPoint" />
            <Array as="points">
              <mxPoint x="48" y="-132" />
            </Array>
          </mxGeometry>
        </mxCell>
        <mxCell id="NNU6m7FlNhpVA4dN36mf-104" value="sex" style="ellipse;whiteSpace=wrap;html=1;align=center;" parent="1" vertex="1">
          <mxGeometry x="105" y="-90" width="100" height="40" as="geometry" />
        </mxCell>
        <mxCell id="NNU6m7FlNhpVA4dN36mf-105" style="edgeStyle=orthogonalEdgeStyle;rounded=0;orthogonalLoop=1;jettySize=auto;html=1;exitX=0;exitY=0.5;exitDx=0;exitDy=0;endArrow=none;endFill=0;entryX=1;entryY=0;entryDx=0;entryDy=0;" parent="1" source="NNU6m7FlNhpVA4dN36mf-104" target="vcyXnpdRyyTq258CwsLV-4" edge="1">
          <mxGeometry relative="1" as="geometry">
            <mxPoint x="90" y="-40" as="targetPoint" />
          </mxGeometry>
        </mxCell>
        <mxCell id="NNU6m7FlNhpVA4dN36mf-107" style="edgeStyle=orthogonalEdgeStyle;rounded=0;orthogonalLoop=1;jettySize=auto;html=1;entryX=0.75;entryY=0;entryDx=0;entryDy=0;endArrow=none;endFill=0;" parent="1" source="NNU6m7FlNhpVA4dN36mf-106" target="vcyXnpdRyyTq258CwsLV-4" edge="1">
          <mxGeometry relative="1" as="geometry">
            <mxPoint x="60" y="-40" as="targetPoint" />
          </mxGeometry>
        </mxCell>
        <mxCell id="NNU6m7FlNhpVA4dN36mf-106" value="full_name" style="ellipse;whiteSpace=wrap;html=1;align=center;dashed=1;" parent="1" vertex="1">
          <mxGeometry x="170" y="-140" width="100" height="40" as="geometry" />
        </mxCell>
        <mxCell id="NNU6m7FlNhpVA4dN36mf-108" value="first_name" style="ellipse;whiteSpace=wrap;html=1;align=center;" parent="1" vertex="1">
          <mxGeometry x="80" y="-220" width="100" height="40" as="geometry" />
        </mxCell>
        <mxCell id="NNU6m7FlNhpVA4dN36mf-114" style="edgeStyle=orthogonalEdgeStyle;rounded=0;orthogonalLoop=1;jettySize=auto;html=1;entryX=0.5;entryY=0;entryDx=0;entryDy=0;exitX=1;exitY=0.5;exitDx=0;exitDy=0;endArrow=none;endFill=0;" parent="1" source="NNU6m7FlNhpVA4dN36mf-109" target="NNU6m7FlNhpVA4dN36mf-106" edge="1">
          <mxGeometry relative="1" as="geometry" />
        </mxCell>
        <mxCell id="NNU6m7FlNhpVA4dN36mf-109" value="middle_name" style="ellipse;whiteSpace=wrap;html=1;align=center;" parent="1" vertex="1">
          <mxGeometry x="100" y="-270" width="100" height="40" as="geometry" />
        </mxCell>
        <mxCell id="NNU6m7FlNhpVA4dN36mf-110" value="first_last_name" style="ellipse;whiteSpace=wrap;html=1;align=center;" parent="1" vertex="1">
          <mxGeometry x="260" y="-270" width="100" height="40" as="geometry" />
        </mxCell>
        <mxCell id="NNU6m7FlNhpVA4dN36mf-115" style="edgeStyle=orthogonalEdgeStyle;rounded=0;orthogonalLoop=1;jettySize=auto;html=1;entryX=1;entryY=0;entryDx=0;entryDy=0;endArrow=none;endFill=0;" parent="1" source="NNU6m7FlNhpVA4dN36mf-111" target="NNU6m7FlNhpVA4dN36mf-106" edge="1">
          <mxGeometry relative="1" as="geometry" />
        </mxCell>
        <mxCell id="NNU6m7FlNhpVA4dN36mf-111" value="second_last_name" style="ellipse;whiteSpace=wrap;html=1;align=center;" parent="1" vertex="1">
          <mxGeometry x="280" y="-220" width="110" height="40" as="geometry" />
        </mxCell>
        <mxCell id="NNU6m7FlNhpVA4dN36mf-113" style="edgeStyle=orthogonalEdgeStyle;rounded=0;orthogonalLoop=1;jettySize=auto;html=1;entryX=0.318;entryY=-0.008;entryDx=0;entryDy=0;entryPerimeter=0;exitX=1;exitY=0.5;exitDx=0;exitDy=0;endArrow=none;endFill=0;" parent="1" source="NNU6m7FlNhpVA4dN36mf-108" target="NNU6m7FlNhpVA4dN36mf-106" edge="1">
          <mxGeometry relative="1" as="geometry" />
        </mxCell>
        <mxCell id="NNU6m7FlNhpVA4dN36mf-116" style="edgeStyle=orthogonalEdgeStyle;rounded=0;orthogonalLoop=1;jettySize=auto;html=1;entryX=0.7;entryY=0;entryDx=0;entryDy=0;entryPerimeter=0;exitX=0;exitY=0.5;exitDx=0;exitDy=0;endArrow=none;endFill=0;" parent="1" source="NNU6m7FlNhpVA4dN36mf-110" target="NNU6m7FlNhpVA4dN36mf-106" edge="1">
          <mxGeometry relative="1" as="geometry" />
        </mxCell>
        <mxCell id="NNU6m7FlNhpVA4dN36mf-119" value="appoiment_id" style="ellipse;whiteSpace=wrap;html=1;align=center;fontStyle=4;" parent="1" vertex="1">
          <mxGeometry x="200" y="370" width="100" height="40" as="geometry" />
        </mxCell>
        <mxCell id="NNU6m7FlNhpVA4dN36mf-120" style="edgeStyle=orthogonalEdgeStyle;rounded=0;orthogonalLoop=1;jettySize=auto;html=1;entryX=1;entryY=0.5;entryDx=0;entryDy=0;endArrow=none;endFill=0;" parent="1" source="NNU6m7FlNhpVA4dN36mf-119" target="NNU6m7FlNhpVA4dN36mf-53" edge="1">
          <mxGeometry relative="1" as="geometry" />
        </mxCell>
        <mxCell id="NNU6m7FlNhpVA4dN36mf-122" style="edgeStyle=orthogonalEdgeStyle;rounded=0;orthogonalLoop=1;jettySize=auto;html=1;entryX=0;entryY=0.75;entryDx=0;entryDy=0;endArrow=none;endFill=0;" parent="1" source="NNU6m7FlNhpVA4dN36mf-121" target="NNU6m7FlNhpVA4dN36mf-53" edge="1">
          <mxGeometry relative="1" as="geometry">
            <Array as="points">
              <mxPoint x="-45" y="410" />
              <mxPoint x="-45" y="385" />
            </Array>
          </mxGeometry>
        </mxCell>
        <mxCell id="NNU6m7FlNhpVA4dN36mf-121" value="start_time" style="ellipse;whiteSpace=wrap;html=1;align=center;" parent="1" vertex="1">
          <mxGeometry x="-190" y="390" width="100" height="40" as="geometry" />
        </mxCell>
        <mxCell id="NNU6m7FlNhpVA4dN36mf-124" value="end_time" style="ellipse;whiteSpace=wrap;html=1;align=center;" parent="1" vertex="1">
          <mxGeometry x="-120" y="430" width="100" height="40" as="geometry" />
        </mxCell>
        <mxCell id="NNU6m7FlNhpVA4dN36mf-125" style="edgeStyle=orthogonalEdgeStyle;rounded=0;orthogonalLoop=1;jettySize=auto;html=1;entryX=0.144;entryY=1.003;entryDx=0;entryDy=0;entryPerimeter=0;endArrow=none;endFill=0;" parent="1" source="NNU6m7FlNhpVA4dN36mf-124" target="NNU6m7FlNhpVA4dN36mf-53" edge="1">
          <mxGeometry relative="1" as="geometry" />
        </mxCell>
        <mxCell id="NNU6m7FlNhpVA4dN36mf-127" style="edgeStyle=orthogonalEdgeStyle;rounded=0;orthogonalLoop=1;jettySize=auto;html=1;endArrow=none;endFill=0;" parent="1" source="NNU6m7FlNhpVA4dN36mf-126" edge="1">
          <mxGeometry relative="1" as="geometry">
            <mxPoint x="85" y="410" as="targetPoint" />
          </mxGeometry>
        </mxCell>
        <mxCell id="NNU6m7FlNhpVA4dN36mf-126" value="created_by" style="ellipse;whiteSpace=wrap;html=1;align=center;" parent="1" vertex="1">
          <mxGeometry x="140" y="420" width="100" height="40" as="geometry" />
        </mxCell>
        <mxCell id="NNU6m7FlNhpVA4dN36mf-129" value="date" style="ellipse;whiteSpace=wrap;html=1;align=center;" parent="1" vertex="1">
          <mxGeometry x="-225" y="300" width="100" height="40" as="geometry" />
        </mxCell>
        <mxCell id="NNU6m7FlNhpVA4dN36mf-130" style="edgeStyle=orthogonalEdgeStyle;rounded=0;orthogonalLoop=1;jettySize=auto;html=1;endArrow=none;endFill=0;" parent="1" source="NNU6m7FlNhpVA4dN36mf-129" edge="1">
          <mxGeometry relative="1" as="geometry">
            <mxPoint y="370" as="targetPoint" />
          </mxGeometry>
        </mxCell>
        <mxCell id="NNU6m7FlNhpVA4dN36mf-132" value="1:1" style="text;html=1;whiteSpace=wrap;strokeColor=none;fillColor=none;align=center;verticalAlign=middle;rounded=0;" parent="1" vertex="1">
          <mxGeometry x="30" y="445" width="60" height="30" as="geometry" />
        </mxCell>
        <mxCell id="NNU6m7FlNhpVA4dN36mf-135" value="1:N" style="text;html=1;whiteSpace=wrap;strokeColor=none;fillColor=none;align=center;verticalAlign=middle;rounded=0;labelBackgroundColor=none;" parent="1" vertex="1">
          <mxGeometry x="110" y="135" width="40" height="20" as="geometry" />
        </mxCell>
        <mxCell id="NNU6m7FlNhpVA4dN36mf-136" value="1:1" style="text;html=1;whiteSpace=wrap;strokeColor=none;fillColor=none;align=center;verticalAlign=middle;rounded=0;labelBackgroundColor=none;" parent="1" vertex="1">
          <mxGeometry x="50" y="180" width="40" height="20" as="geometry" />
        </mxCell>
        <mxCell id="NNU6m7FlNhpVA4dN36mf-141" value="1:1" style="text;html=1;whiteSpace=wrap;strokeColor=none;fillColor=none;align=center;verticalAlign=middle;rounded=0;labelBackgroundColor=none;" parent="1" vertex="1">
          <mxGeometry x="145" y="-295" width="40" height="20" as="geometry" />
        </mxCell>
        <mxCell id="NNU6m7FlNhpVA4dN36mf-142" value="tienen" style="shape=rhombus;perimeter=rhombusPerimeter;whiteSpace=wrap;html=1;align=center;labelBackgroundColor=none;" parent="1" vertex="1">
          <mxGeometry x="375" y="-265" width="120" height="60" as="geometry" />
        </mxCell>
        <mxCell id="NNU6m7FlNhpVA4dN36mf-143" value="1:N" style="text;html=1;whiteSpace=wrap;strokeColor=none;fillColor=none;align=center;verticalAlign=middle;rounded=0;" parent="1" vertex="1">
          <mxGeometry x="90" y="525" width="60" height="30" as="geometry" />
        </mxCell>
        <mxCell id="NNU6m7FlNhpVA4dN36mf-144" value="1:N" style="text;html=1;whiteSpace=wrap;strokeColor=none;fillColor=none;align=center;verticalAlign=middle;rounded=0;" parent="1" vertex="1">
          <mxGeometry x="30" y="585" width="60" height="30" as="geometry" />
        </mxCell>
        <mxCell id="NNU6m7FlNhpVA4dN36mf-148" style="edgeStyle=orthogonalEdgeStyle;rounded=0;orthogonalLoop=1;jettySize=auto;html=1;entryX=1;entryY=1;entryDx=0;entryDy=0;endArrow=none;endFill=0;" parent="1" source="NNU6m7FlNhpVA4dN36mf-147" target="NNU6m7FlNhpVA4dN36mf-1" edge="1">
          <mxGeometry relative="1" as="geometry" />
        </mxCell>
        <mxCell id="NNU6m7FlNhpVA4dN36mf-147" value="medical_shecule" style="ellipse;shape=doubleEllipse;margin=3;whiteSpace=wrap;html=1;align=center;" parent="1" vertex="1">
          <mxGeometry x="180" y="720" width="130" height="40" as="geometry" />
        </mxCell>
        <mxCell id="NNU6m7FlNhpVA4dN36mf-150" style="edgeStyle=orthogonalEdgeStyle;rounded=0;orthogonalLoop=1;jettySize=auto;html=1;entryX=0.75;entryY=1;entryDx=0;entryDy=0;endArrow=none;endFill=0;" parent="1" source="NNU6m7FlNhpVA4dN36mf-149" target="NNU6m7FlNhpVA4dN36mf-1" edge="1">
          <mxGeometry relative="1" as="geometry">
            <Array as="points">
              <mxPoint x="110" y="760" />
              <mxPoint x="65" y="760" />
            </Array>
          </mxGeometry>
        </mxCell>
        <mxCell id="NNU6m7FlNhpVA4dN36mf-149" value="surnames" style="ellipse;whiteSpace=wrap;html=1;align=center;" parent="1" vertex="1">
          <mxGeometry x="60" y="780" width="100" height="40" as="geometry" />
        </mxCell>
        <mxCell id="NNU6m7FlNhpVA4dN36mf-152" value="names" style="ellipse;whiteSpace=wrap;html=1;align=center;" parent="1" vertex="1">
          <mxGeometry x="-40" y="780" width="100" height="40" as="geometry" />
        </mxCell>
        <mxCell id="NNU6m7FlNhpVA4dN36mf-153" style="edgeStyle=orthogonalEdgeStyle;rounded=0;orthogonalLoop=1;jettySize=auto;html=1;endArrow=none;endFill=0;" parent="1" source="NNU6m7FlNhpVA4dN36mf-152" edge="1">
          <mxGeometry relative="1" as="geometry">
            <mxPoint x="10" y="700" as="targetPoint" />
            <Array as="points">
              <mxPoint x="10" y="701" />
            </Array>
          </mxGeometry>
        </mxCell>
        <mxCell id="NNU6m7FlNhpVA4dN36mf-155" style="edgeStyle=orthogonalEdgeStyle;rounded=0;orthogonalLoop=1;jettySize=auto;html=1;endArrow=none;endFill=0;" parent="1" source="NNU6m7FlNhpVA4dN36mf-154" edge="1">
          <mxGeometry relative="1" as="geometry">
            <mxPoint y="700" as="targetPoint" />
            <Array as="points">
              <mxPoint x="-50" y="710" />
              <mxPoint y="710" />
              <mxPoint y="700" />
            </Array>
          </mxGeometry>
        </mxCell>
        <mxCell id="NNU6m7FlNhpVA4dN36mf-154" value="hospital_admission_date" style="ellipse;whiteSpace=wrap;html=1;align=center;" parent="1" vertex="1">
          <mxGeometry x="-130" y="830" width="160" height="30" as="geometry" />
        </mxCell>
        <mxCell id="NNU6m7FlNhpVA4dN36mf-161" style="edgeStyle=orthogonalEdgeStyle;rounded=0;orthogonalLoop=1;jettySize=auto;html=1;exitX=0.5;exitY=0;exitDx=0;exitDy=0;endArrow=none;endFill=0;" parent="1" source="NNU6m7FlNhpVA4dN36mf-156" edge="1">
          <mxGeometry relative="1" as="geometry">
            <mxPoint x="-130" y="770" as="sourcePoint" />
            <mxPoint x="-10" y="700" as="targetPoint" />
            <Array as="points">
              <mxPoint x="-100" y="780" />
              <mxPoint x="-100" y="700" />
            </Array>
          </mxGeometry>
        </mxCell>
        <mxCell id="NNU6m7FlNhpVA4dN36mf-156" value="professional_email" style="ellipse;whiteSpace=wrap;html=1;align=center;" parent="1" vertex="1">
          <mxGeometry x="-175" y="780" width="120" height="40" as="geometry" />
        </mxCell>
        <mxCell id="NNU6m7FlNhpVA4dN36mf-160" style="edgeStyle=orthogonalEdgeStyle;rounded=0;orthogonalLoop=1;jettySize=auto;html=1;exitX=1;exitY=0.5;exitDx=0;exitDy=0;entryX=0;entryY=0.75;entryDx=0;entryDy=0;endArrow=none;endFill=0;" parent="1" source="NNU6m7FlNhpVA4dN36mf-158" target="NNU6m7FlNhpVA4dN36mf-1" edge="1">
          <mxGeometry relative="1" as="geometry">
            <Array as="points">
              <mxPoint x="-140" y="690" />
            </Array>
          </mxGeometry>
        </mxCell>
        <mxCell id="NNU6m7FlNhpVA4dN36mf-158" value="internal_code" style="ellipse;whiteSpace=wrap;html=1;align=center;" parent="1" vertex="1">
          <mxGeometry x="-240" y="750" width="100" height="40" as="geometry" />
        </mxCell>
        <mxCell id="NNU6m7FlNhpVA4dN36mf-163" style="edgeStyle=orthogonalEdgeStyle;rounded=0;orthogonalLoop=1;jettySize=auto;html=1;entryX=1;entryY=0.5;entryDx=0;entryDy=0;endArrow=none;endFill=0;" parent="1" source="NNU6m7FlNhpVA4dN36mf-162" target="NNU6m7FlNhpVA4dN36mf-1" edge="1">
          <mxGeometry relative="1" as="geometry" />
        </mxCell>
        <mxCell id="f0tiEuDnIObpeq9we8xW-1" style="edgeStyle=orthogonalEdgeStyle;rounded=0;orthogonalLoop=1;jettySize=auto;html=1;exitX=1;exitY=0.5;exitDx=0;exitDy=0;entryX=0;entryY=0.5;entryDx=0;entryDy=0;endArrow=none;endFill=0;" edge="1" parent="1" source="NNU6m7FlNhpVA4dN36mf-162" target="NNU6m7FlNhpVA4dN36mf-30">
          <mxGeometry relative="1" as="geometry" />
        </mxCell>
        <mxCell id="NNU6m7FlNhpVA4dN36mf-162" value="register" style="shape=rhombus;perimeter=rhombusPerimeter;whiteSpace=wrap;html=1;align=center;" parent="1" vertex="1">
          <mxGeometry x="340" y="650" width="120" height="60" as="geometry" />
        </mxCell>
        <mxCell id="f0tiEuDnIObpeq9we8xW-2" value="history_id" style="ellipse;whiteSpace=wrap;html=1;align=center;fontStyle=4;" vertex="1" parent="1">
          <mxGeometry x="560" y="530" width="100" height="40" as="geometry" />
        </mxCell>
        <mxCell id="f0tiEuDnIObpeq9we8xW-3" style="edgeStyle=orthogonalEdgeStyle;rounded=0;orthogonalLoop=1;jettySize=auto;html=1;endArrow=none;endFill=0;entryX=0.4;entryY=0;entryDx=0;entryDy=0;entryPerimeter=0;" edge="1" parent="1" source="f0tiEuDnIObpeq9we8xW-2" target="NNU6m7FlNhpVA4dN36mf-30">
          <mxGeometry relative="1" as="geometry">
            <mxPoint x="580" y="660" as="targetPoint" />
          </mxGeometry>
        </mxCell>
        <mxCell id="f0tiEuDnIObpeq9we8xW-4" value="record_type" style="ellipse;whiteSpace=wrap;html=1;align=center;" vertex="1" parent="1">
          <mxGeometry x="700" y="720" width="100" height="40" as="geometry" />
        </mxCell>
        <mxCell id="f0tiEuDnIObpeq9we8xW-5" style="edgeStyle=orthogonalEdgeStyle;rounded=0;orthogonalLoop=1;jettySize=auto;html=1;entryX=0.9;entryY=1;entryDx=0;entryDy=0;entryPerimeter=0;endArrow=none;endFill=0;" edge="1" parent="1" source="f0tiEuDnIObpeq9we8xW-4" target="NNU6m7FlNhpVA4dN36mf-30">
          <mxGeometry relative="1" as="geometry" />
        </mxCell>
        <mxCell id="f0tiEuDnIObpeq9we8xW-7" style="edgeStyle=orthogonalEdgeStyle;rounded=0;orthogonalLoop=1;jettySize=auto;html=1;entryX=1;entryY=0.75;entryDx=0;entryDy=0;endArrow=none;endFill=0;" edge="1" parent="1" source="f0tiEuDnIObpeq9we8xW-6" target="NNU6m7FlNhpVA4dN36mf-30">
          <mxGeometry relative="1" as="geometry" />
        </mxCell>
        <mxCell id="f0tiEuDnIObpeq9we8xW-6" value="history_diagnosis" style="ellipse;shape=doubleEllipse;margin=3;whiteSpace=wrap;html=1;align=center;" vertex="1" parent="1">
          <mxGeometry x="690" y="670" width="110" height="40" as="geometry" />
        </mxCell>
        <mxCell id="f0tiEuDnIObpeq9we8xW-9" value="prescription" style="ellipse;shape=doubleEllipse;margin=3;whiteSpace=wrap;html=1;align=center;" vertex="1" parent="1">
          <mxGeometry x="720" y="780" width="100" height="40" as="geometry" />
        </mxCell>
        <mxCell id="f0tiEuDnIObpeq9we8xW-11" style="edgeStyle=orthogonalEdgeStyle;rounded=0;orthogonalLoop=1;jettySize=auto;html=1;exitX=0.75;exitY=1;exitDx=0;exitDy=0;entryX=0.348;entryY=0.092;entryDx=0;entryDy=0;entryPerimeter=0;endArrow=none;endFill=0;" edge="1" parent="1" source="NNU6m7FlNhpVA4dN36mf-30" target="f0tiEuDnIObpeq9we8xW-9">
          <mxGeometry relative="1" as="geometry">
            <Array as="points">
              <mxPoint x="645" y="784" />
              <mxPoint x="735" y="784" />
            </Array>
          </mxGeometry>
        </mxCell>
        <mxCell id="f0tiEuDnIObpeq9we8xW-13" value="tuition_number" style="ellipse;whiteSpace=wrap;html=1;align=center;" vertex="1" parent="1">
          <mxGeometry x="650" y="555" width="100" height="40" as="geometry" />
        </mxCell>
        <mxCell id="f0tiEuDnIObpeq9we8xW-14" style="edgeStyle=orthogonalEdgeStyle;rounded=0;orthogonalLoop=1;jettySize=auto;html=1;exitX=0;exitY=1;exitDx=0;exitDy=0;entryX=0.706;entryY=-0.014;entryDx=0;entryDy=0;entryPerimeter=0;endArrow=none;endFill=0;" edge="1" parent="1" source="f0tiEuDnIObpeq9we8xW-13" target="NNU6m7FlNhpVA4dN36mf-30">
          <mxGeometry relative="1" as="geometry" />
        </mxCell>
        <mxCell id="f0tiEuDnIObpeq9we8xW-16" style="edgeStyle=orthogonalEdgeStyle;rounded=0;orthogonalLoop=1;jettySize=auto;html=1;entryX=1;entryY=0;entryDx=0;entryDy=0;endArrow=none;endFill=0;" edge="1" parent="1" source="f0tiEuDnIObpeq9we8xW-15" target="NNU6m7FlNhpVA4dN36mf-30">
          <mxGeometry relative="1" as="geometry" />
        </mxCell>
        <mxCell id="f0tiEuDnIObpeq9we8xW-15" value="date_time_registration" style="ellipse;whiteSpace=wrap;html=1;align=center;dashed=1;" vertex="1" parent="1">
          <mxGeometry x="750" y="610" width="130" height="40" as="geometry" />
        </mxCell>
        <mxCell id="f0tiEuDnIObpeq9we8xW-19" style="edgeStyle=orthogonalEdgeStyle;rounded=0;orthogonalLoop=1;jettySize=auto;html=1;entryX=1;entryY=0;entryDx=0;entryDy=0;endArrow=none;endFill=0;" edge="1" parent="1" source="f0tiEuDnIObpeq9we8xW-17" target="f0tiEuDnIObpeq9we8xW-15">
          <mxGeometry relative="1" as="geometry" />
        </mxCell>
        <mxCell id="f0tiEuDnIObpeq9we8xW-17" value="registration_date" style="ellipse;whiteSpace=wrap;html=1;align=center;" vertex="1" parent="1">
          <mxGeometry x="900" y="535" width="100" height="40" as="geometry" />
        </mxCell>
        <mxCell id="f0tiEuDnIObpeq9we8xW-21" style="edgeStyle=orthogonalEdgeStyle;rounded=0;orthogonalLoop=1;jettySize=auto;html=1;entryX=1;entryY=0.5;entryDx=0;entryDy=0;endArrow=none;endFill=0;" edge="1" parent="1" source="f0tiEuDnIObpeq9we8xW-20" target="f0tiEuDnIObpeq9we8xW-15">
          <mxGeometry relative="1" as="geometry" />
        </mxCell>
        <mxCell id="f0tiEuDnIObpeq9we8xW-20" value="registration_time" style="ellipse;whiteSpace=wrap;html=1;align=center;" vertex="1" parent="1">
          <mxGeometry x="940" y="610" width="100" height="40" as="geometry" />
        </mxCell>
        <mxCell id="f0tiEuDnIObpeq9we8xW-23" style="edgeStyle=orthogonalEdgeStyle;rounded=0;orthogonalLoop=1;jettySize=auto;html=1;endArrow=none;endFill=0;" edge="1" parent="1" source="f0tiEuDnIObpeq9we8xW-22" target="NNU6m7FlNhpVA4dN36mf-30">
          <mxGeometry relative="1" as="geometry">
            <Array as="points">
              <mxPoint x="620" y="860" />
            </Array>
          </mxGeometry>
        </mxCell>
        <mxCell id="f0tiEuDnIObpeq9we8xW-22" value="sumary_text" style="ellipse;whiteSpace=wrap;html=1;align=center;" vertex="1" parent="1">
          <mxGeometry x="765" y="830" width="100" height="40" as="geometry" />
        </mxCell>
        <mxCell id="f0tiEuDnIObpeq9we8xW-24" value="vital_signs" style="ellipse;shape=doubleEllipse;margin=3;whiteSpace=wrap;html=1;align=center;" vertex="1" parent="1">
          <mxGeometry x="470" y="565" width="100" height="40" as="geometry" />
        </mxCell>
        <mxCell id="f0tiEuDnIObpeq9we8xW-25" style="edgeStyle=orthogonalEdgeStyle;rounded=0;orthogonalLoop=1;jettySize=auto;html=1;entryX=0.198;entryY=0.024;entryDx=0;entryDy=0;entryPerimeter=0;endArrow=none;endFill=0;" edge="1" parent="1" source="f0tiEuDnIObpeq9we8xW-24" target="NNU6m7FlNhpVA4dN36mf-30">
          <mxGeometry relative="1" as="geometry" />
        </mxCell>
        <mxCell id="f0tiEuDnIObpeq9we8xW-26" value="1:N" style="text;html=1;whiteSpace=wrap;strokeColor=none;fillColor=none;align=center;verticalAlign=middle;rounded=0;labelBackgroundColor=none;" vertex="1" parent="1">
          <mxGeometry x="270" y="650" width="60" height="30" as="geometry" />
        </mxCell>
        <mxCell id="f0tiEuDnIObpeq9we8xW-27" value="1:N" style="text;html=1;whiteSpace=wrap;strokeColor=none;fillColor=none;align=center;verticalAlign=middle;rounded=0;labelBackgroundColor=none;" vertex="1" parent="1">
          <mxGeometry x="370" y="620" width="60" height="30" as="geometry" />
        </mxCell>
        <mxCell id="f0tiEuDnIObpeq9we8xW-29" value="structured_summary" style="ellipse;whiteSpace=wrap;html=1;align=center;" vertex="1" parent="1">
          <mxGeometry x="440" y="700" width="120" height="50" as="geometry" />
        </mxCell>
        <mxCell id="f0tiEuDnIObpeq9we8xW-30" style="edgeStyle=orthogonalEdgeStyle;rounded=0;orthogonalLoop=1;jettySize=auto;html=1;endArrow=none;endFill=0;" edge="1" parent="1" source="f0tiEuDnIObpeq9we8xW-29">
          <mxGeometry relative="1" as="geometry">
            <mxPoint x="579" y="700" as="targetPoint" />
            <Array as="points">
              <mxPoint x="580" y="725" />
              <mxPoint x="580" y="700" />
              <mxPoint x="579" y="700" />
            </Array>
          </mxGeometry>
        </mxCell>
        <mxCell id="f0tiEuDnIObpeq9we8xW-31" value="internal code" style="ellipse;whiteSpace=wrap;html=1;align=center;" vertex="1" parent="1">
          <mxGeometry x="450" y="760" width="100" height="40" as="geometry" />
        </mxCell>
        <mxCell id="f0tiEuDnIObpeq9we8xW-32" style="edgeStyle=orthogonalEdgeStyle;rounded=0;orthogonalLoop=1;jettySize=auto;html=1;entryX=0.237;entryY=0.986;entryDx=0;entryDy=0;entryPerimeter=0;endArrow=none;endFill=0;" edge="1" parent="1" source="f0tiEuDnIObpeq9we8xW-31" target="NNU6m7FlNhpVA4dN36mf-30">
          <mxGeometry relative="1" as="geometry" />
        </mxCell>
        <mxCell id="f0tiEuDnIObpeq9we8xW-33" value="telephones" style="ellipse;shape=doubleEllipse;margin=3;whiteSpace=wrap;html=1;align=center;" vertex="1" parent="1">
          <mxGeometry x="450" y="810" width="100" height="40" as="geometry" />
        </mxCell>
        <mxCell id="f0tiEuDnIObpeq9we8xW-34" style="edgeStyle=orthogonalEdgeStyle;rounded=0;orthogonalLoop=1;jettySize=auto;html=1;endArrow=none;endFill=0;" edge="1" parent="1" source="f0tiEuDnIObpeq9we8xW-33">
          <mxGeometry relative="1" as="geometry">
            <mxPoint x="606" y="700" as="targetPoint" />
          </mxGeometry>
        </mxCell>
        <mxCell id="f0tiEuDnIObpeq9we8xW-36" style="edgeStyle=orthogonalEdgeStyle;rounded=0;orthogonalLoop=1;jettySize=auto;html=1;entryX=1;entryY=0.5;entryDx=0;entryDy=0;endArrow=none;endFill=0;" edge="1" parent="1" source="f0tiEuDnIObpeq9we8xW-35" target="vcyXnpdRyyTq258CwsLV-4">
          <mxGeometry relative="1" as="geometry" />
        </mxCell>
        <mxCell id="f0tiEuDnIObpeq9we8xW-35" value="has" style="shape=rhombus;perimeter=rhombusPerimeter;whiteSpace=wrap;html=1;align=center;" vertex="1" parent="1">
          <mxGeometry x="400" y="-45" width="120" height="60" as="geometry" />
        </mxCell>
        <mxCell id="f0tiEuDnIObpeq9we8xW-38" style="edgeStyle=orthogonalEdgeStyle;rounded=0;orthogonalLoop=1;jettySize=auto;html=1;entryX=1;entryY=0.5;entryDx=0;entryDy=0;endArrow=none;endFill=0;" edge="1" parent="1" source="f0tiEuDnIObpeq9we8xW-37" target="f0tiEuDnIObpeq9we8xW-35">
          <mxGeometry relative="1" as="geometry" />
        </mxCell>
        <mxCell id="f0tiEuDnIObpeq9we8xW-37" value="policies" style="whiteSpace=wrap;html=1;align=center;" vertex="1" parent="1">
          <mxGeometry x="770" y="-35" width="100" height="40" as="geometry" />
        </mxCell>
        <mxCell id="f0tiEuDnIObpeq9we8xW-39" value="1:N" style="text;html=1;whiteSpace=wrap;strokeColor=none;fillColor=none;align=center;verticalAlign=middle;rounded=0;labelBackgroundColor=none;" vertex="1" parent="1">
          <mxGeometry x="270" y="-40" width="40" height="20" as="geometry" />
        </mxCell>
        <mxCell id="f0tiEuDnIObpeq9we8xW-40" value="1:N" style="text;html=1;whiteSpace=wrap;strokeColor=none;fillColor=none;align=center;verticalAlign=middle;rounded=0;labelBackgroundColor=none;" vertex="1" parent="1">
          <mxGeometry x="440" y="-75" width="40" height="20" as="geometry" />
        </mxCell>
        <mxCell id="f0tiEuDnIObpeq9we8xW-41" value="1:1" style="text;html=1;whiteSpace=wrap;strokeColor=none;fillColor=none;align=center;verticalAlign=middle;rounded=0;labelBackgroundColor=none;" vertex="1" parent="1">
          <mxGeometry x="630" y="-40" width="40" height="20" as="geometry" />
        </mxCell>
        <mxCell id="f0tiEuDnIObpeq9we8xW-42" value="policy_id" style="ellipse;whiteSpace=wrap;html=1;align=center;fontStyle=4;" vertex="1" parent="1">
          <mxGeometry x="910" y="-110" width="100" height="40" as="geometry" />
        </mxCell>
        <mxCell id="f0tiEuDnIObpeq9we8xW-44" value="start_date" style="ellipse;whiteSpace=wrap;html=1;align=center;" vertex="1" parent="1">
          <mxGeometry x="865" y="90" width="100" height="40" as="geometry" />
        </mxCell>
        <mxCell id="f0tiEuDnIObpeq9we8xW-56" style="edgeStyle=orthogonalEdgeStyle;rounded=0;orthogonalLoop=1;jettySize=auto;html=1;entryX=0.5;entryY=0;entryDx=0;entryDy=0;endArrow=none;endFill=0;" edge="1" parent="1" source="f0tiEuDnIObpeq9we8xW-45" target="f0tiEuDnIObpeq9we8xW-37">
          <mxGeometry relative="1" as="geometry" />
        </mxCell>
        <mxCell id="f0tiEuDnIObpeq9we8xW-45" value="end_date" style="ellipse;whiteSpace=wrap;html=1;align=center;" vertex="1" parent="1">
          <mxGeometry x="770" y="-155" width="100" height="40" as="geometry" />
        </mxCell>
        <mxCell id="f0tiEuDnIObpeq9we8xW-46" value="state" style="ellipse;whiteSpace=wrap;html=1;align=center;" vertex="1" parent="1">
          <mxGeometry x="880" y="45" width="100" height="40" as="geometry" />
        </mxCell>
        <mxCell id="f0tiEuDnIObpeq9we8xW-47" value="policy_number" style="ellipse;whiteSpace=wrap;html=1;align=center;" vertex="1" parent="1">
          <mxGeometry x="670" y="-115" width="100" height="40" as="geometry" />
        </mxCell>
        <mxCell id="f0tiEuDnIObpeq9we8xW-48" value="coverage_summary" style="ellipse;whiteSpace=wrap;html=1;align=center;" vertex="1" parent="1">
          <mxGeometry x="640" y="50" width="120" height="40" as="geometry" />
        </mxCell>
        <mxCell id="f0tiEuDnIObpeq9we8xW-50" style="edgeStyle=orthogonalEdgeStyle;rounded=0;orthogonalLoop=1;jettySize=auto;html=1;entryX=0;entryY=1;entryDx=0;entryDy=0;endArrow=none;endFill=0;" edge="1" parent="1" source="f0tiEuDnIObpeq9we8xW-49" target="f0tiEuDnIObpeq9we8xW-37">
          <mxGeometry relative="1" as="geometry" />
        </mxCell>
        <mxCell id="f0tiEuDnIObpeq9we8xW-49" value="state" style="ellipse;whiteSpace=wrap;html=1;align=center;" vertex="1" parent="1">
          <mxGeometry x="620" y="5" width="100" height="40" as="geometry" />
        </mxCell>
        <mxCell id="f0tiEuDnIObpeq9we8xW-51" style="edgeStyle=orthogonalEdgeStyle;rounded=0;orthogonalLoop=1;jettySize=auto;html=1;entryX=0.077;entryY=-0.004;entryDx=0;entryDy=0;entryPerimeter=0;endArrow=none;endFill=0;" edge="1" parent="1" source="f0tiEuDnIObpeq9we8xW-47" target="f0tiEuDnIObpeq9we8xW-37">
          <mxGeometry relative="1" as="geometry" />
        </mxCell>
        <mxCell id="f0tiEuDnIObpeq9we8xW-52" style="edgeStyle=orthogonalEdgeStyle;rounded=0;orthogonalLoop=1;jettySize=auto;html=1;entryX=0.332;entryY=1.016;entryDx=0;entryDy=0;entryPerimeter=0;endArrow=none;endFill=0;" edge="1" parent="1" source="f0tiEuDnIObpeq9we8xW-48" target="f0tiEuDnIObpeq9we8xW-37">
          <mxGeometry relative="1" as="geometry" />
        </mxCell>
        <mxCell id="f0tiEuDnIObpeq9we8xW-53" style="edgeStyle=orthogonalEdgeStyle;rounded=0;orthogonalLoop=1;jettySize=auto;html=1;entryX=0.804;entryY=0.986;entryDx=0;entryDy=0;entryPerimeter=0;endArrow=none;endFill=0;" edge="1" parent="1" source="f0tiEuDnIObpeq9we8xW-46" target="f0tiEuDnIObpeq9we8xW-37">
          <mxGeometry relative="1" as="geometry" />
        </mxCell>
        <mxCell id="f0tiEuDnIObpeq9we8xW-54" style="edgeStyle=orthogonalEdgeStyle;rounded=0;orthogonalLoop=1;jettySize=auto;html=1;exitX=0;exitY=0.5;exitDx=0;exitDy=0;endArrow=none;endFill=0;entryX=0.59;entryY=1.017;entryDx=0;entryDy=0;entryPerimeter=0;" edge="1" parent="1" source="f0tiEuDnIObpeq9we8xW-44" target="f0tiEuDnIObpeq9we8xW-37">
          <mxGeometry relative="1" as="geometry">
            <mxPoint x="829" y="10" as="targetPoint" />
          </mxGeometry>
        </mxCell>
        <mxCell id="f0tiEuDnIObpeq9we8xW-55" style="edgeStyle=orthogonalEdgeStyle;rounded=0;orthogonalLoop=1;jettySize=auto;html=1;entryX=0.917;entryY=-0.009;entryDx=0;entryDy=0;entryPerimeter=0;endArrow=none;endFill=0;" edge="1" parent="1" source="f0tiEuDnIObpeq9we8xW-42" target="f0tiEuDnIObpeq9we8xW-37">
          <mxGeometry relative="1" as="geometry" />
        </mxCell>
        <mxCell id="f0tiEuDnIObpeq9we8xW-58" style="edgeStyle=orthogonalEdgeStyle;rounded=0;orthogonalLoop=1;jettySize=auto;html=1;entryX=1;entryY=0.5;entryDx=0;entryDy=0;" edge="1" parent="1" source="f0tiEuDnIObpeq9we8xW-57" target="f0tiEuDnIObpeq9we8xW-37">
          <mxGeometry relative="1" as="geometry" />
        </mxCell>
        <mxCell id="f0tiEuDnIObpeq9we8xW-57" value="consultation" style="shape=rhombus;perimeter=rhombusPerimeter;whiteSpace=wrap;html=1;align=center;" vertex="1" parent="1">
          <mxGeometry x="1000" y="-45" width="120" height="60" as="geometry" />
        </mxCell>
        <mxCell id="f0tiEuDnIObpeq9we8xW-59" value="1:1" style="text;html=1;whiteSpace=wrap;strokeColor=none;fillColor=none;align=center;verticalAlign=middle;rounded=0;" vertex="1" parent="1">
          <mxGeometry x="910" y="-45" width="60" height="30" as="geometry" />
        </mxCell>
        <mxCell id="f0tiEuDnIObpeq9we8xW-60" value="N:1" style="text;html=1;whiteSpace=wrap;strokeColor=none;fillColor=none;align=center;verticalAlign=middle;rounded=0;labelBackgroundColor=none;" vertex="1" parent="1">
          <mxGeometry x="1040" y="-70" width="40" height="20" as="geometry" />
        </mxCell>
        <mxCell id="f0tiEuDnIObpeq9we8xW-61" value="1:N" style="text;html=1;whiteSpace=wrap;strokeColor=none;fillColor=none;align=center;verticalAlign=middle;rounded=0;labelBackgroundColor=none;" vertex="1" parent="1">
          <mxGeometry x="1140" y="-40" width="40" height="20" as="geometry" />
        </mxCell>
        <mxCell id="f0tiEuDnIObpeq9we8xW-64" style="edgeStyle=orthogonalEdgeStyle;rounded=0;orthogonalLoop=1;jettySize=auto;html=1;entryX=1;entryY=0.5;entryDx=0;entryDy=0;endArrow=none;endFill=0;" edge="1" parent="1" source="f0tiEuDnIObpeq9we8xW-63" target="f0tiEuDnIObpeq9we8xW-57">
          <mxGeometry relative="1" as="geometry" />
        </mxCell>
        <mxCell id="f0tiEuDnIObpeq9we8xW-63" value="insurers" style="whiteSpace=wrap;html=1;align=center;" vertex="1" parent="1">
          <mxGeometry x="1230" y="-35" width="100" height="40" as="geometry" />
        </mxCell>
        <mxCell id="f0tiEuDnIObpeq9we8xW-67" style="edgeStyle=orthogonalEdgeStyle;rounded=0;orthogonalLoop=1;jettySize=auto;html=1;entryX=0.5;entryY=0;entryDx=0;entryDy=0;endArrow=none;endFill=0;" edge="1" parent="1" source="f0tiEuDnIObpeq9we8xW-66" target="f0tiEuDnIObpeq9we8xW-63">
          <mxGeometry relative="1" as="geometry" />
        </mxCell>
        <mxCell id="f0tiEuDnIObpeq9we8xW-66" value="insurer_id" style="ellipse;whiteSpace=wrap;html=1;align=center;fontStyle=4;" vertex="1" parent="1">
          <mxGeometry x="1230" y="-115" width="100" height="40" as="geometry" />
        </mxCell>
        <mxCell id="f0tiEuDnIObpeq9we8xW-69" style="edgeStyle=orthogonalEdgeStyle;rounded=0;orthogonalLoop=1;jettySize=auto;html=1;entryX=1;entryY=0.5;entryDx=0;entryDy=0;endArrow=none;endFill=0;" edge="1" parent="1" source="f0tiEuDnIObpeq9we8xW-68" target="f0tiEuDnIObpeq9we8xW-63">
          <mxGeometry relative="1" as="geometry" />
        </mxCell>
        <mxCell id="f0tiEuDnIObpeq9we8xW-68" value="name" style="ellipse;whiteSpace=wrap;html=1;align=center;" vertex="1" parent="1">
          <mxGeometry x="1350" y="-35" width="100" height="40" as="geometry" />
        </mxCell>
        <mxCell id="f0tiEuDnIObpeq9we8xW-71" style="edgeStyle=orthogonalEdgeStyle;rounded=0;orthogonalLoop=1;jettySize=auto;html=1;endArrow=none;endFill=0;entryX=0.5;entryY=1;entryDx=0;entryDy=0;" edge="1" parent="1" source="f0tiEuDnIObpeq9we8xW-70" target="f0tiEuDnIObpeq9we8xW-63">
          <mxGeometry relative="1" as="geometry">
            <mxPoint x="1280" y="10" as="targetPoint" />
          </mxGeometry>
        </mxCell>
        <mxCell id="f0tiEuDnIObpeq9we8xW-70" value="contact" style="ellipse;whiteSpace=wrap;html=1;align=center;" vertex="1" parent="1">
          <mxGeometry x="1230" y="30" width="100" height="40" as="geometry" />
        </mxCell>
        <mxCell id="f0tiEuDnIObpeq9we8xW-75" value="Relaciones y cardinalidad" style="swimlane;fontStyle=0;childLayout=stackLayout;horizontal=1;startSize=30;horizontalStack=0;resizeParent=1;resizeParentMax=0;resizeLast=0;collapsible=1;marginBottom=0;whiteSpace=wrap;html=1;" vertex="1" parent="1">
          <mxGeometry x="1110" y="820" width="310" height="370" as="geometry" />
        </mxCell>
        <mxCell id="f0tiEuDnIObpeq9we8xW-76" value="paciente-poliza:&lt;div&gt;izq-der--&amp;gt; un paciente puede tener varias polizas&lt;/div&gt;&lt;div&gt;der-izq--&amp;gt; una poliza pertenece a un unico paciente&lt;/div&gt;" style="text;strokeColor=none;fillColor=none;align=left;verticalAlign=middle;spacingLeft=4;spacingRight=4;overflow=hidden;points=[[0,0.5],[1,0.5]];portConstraint=eastwest;rotatable=0;whiteSpace=wrap;html=1;" vertex="1" parent="f0tiEuDnIObpeq9we8xW-75">
          <mxGeometry y="30" width="310" height="50" as="geometry" />
        </mxCell>
        <mxCell id="f0tiEuDnIObpeq9we8xW-82" value="poliza-aseguradora:&lt;div&gt;izq-der--&amp;gt;una poliza solo tiene una aseguradora&lt;/div&gt;&lt;div&gt;der-izq--&amp;gt; una aseguradora puede tiene muchas polizas&lt;/div&gt;" style="text;strokeColor=none;fillColor=none;align=left;verticalAlign=middle;spacingLeft=4;spacingRight=4;overflow=hidden;points=[[0,0.5],[1,0.5]];portConstraint=eastwest;rotatable=0;whiteSpace=wrap;html=1;" vertex="1" parent="f0tiEuDnIObpeq9we8xW-75">
          <mxGeometry y="80" width="310" height="50" as="geometry" />
        </mxCell>
        <mxCell id="f0tiEuDnIObpeq9we8xW-80" value="pacientes-citas:&lt;div&gt;izq-der--&amp;gt; los pacientes pueden tener varias citas&lt;/div&gt;&lt;div&gt;der-izq--&amp;gt;una cita tiene un unico paciente&lt;/div&gt;" style="text;strokeColor=none;fillColor=none;align=left;verticalAlign=middle;spacingLeft=4;spacingRight=4;overflow=hidden;points=[[0,0.5],[1,0.5]];portConstraint=eastwest;rotatable=0;whiteSpace=wrap;html=1;" vertex="1" parent="f0tiEuDnIObpeq9we8xW-75">
          <mxGeometry y="130" width="310" height="70" as="geometry" />
        </mxCell>
        <mxCell id="f0tiEuDnIObpeq9we8xW-79" value="citas-doctor:&lt;br&gt;&lt;div&gt;izq-der--&amp;gt;un cita tiene un doctor&lt;/div&gt;&lt;div&gt;der-izq--&amp;gt; un doctor se encarga de varias citas&lt;/div&gt;" style="text;strokeColor=none;fillColor=none;align=left;verticalAlign=middle;spacingLeft=4;spacingRight=4;overflow=hidden;points=[[0,0.5],[1,0.5]];portConstraint=eastwest;rotatable=0;whiteSpace=wrap;html=1;" vertex="1" parent="f0tiEuDnIObpeq9we8xW-75">
          <mxGeometry y="200" width="310" height="50" as="geometry" />
        </mxCell>
        <mxCell id="f0tiEuDnIObpeq9we8xW-88" value="doctor-historia_clinica:&lt;div&gt;izq-der--&amp;gt; un doctor registra varios historias clinicas&lt;/div&gt;&lt;div&gt;der-izq--&amp;gt; una historia clinica es registrada por un unico doctor&lt;/div&gt;" style="text;strokeColor=none;fillColor=none;align=left;verticalAlign=middle;spacingLeft=4;spacingRight=4;overflow=hidden;points=[[0,0.5],[1,0.5]];portConstraint=eastwest;rotatable=0;whiteSpace=wrap;html=1;" vertex="1" parent="f0tiEuDnIObpeq9we8xW-75">
          <mxGeometry y="250" width="310" height="60" as="geometry" />
        </mxCell>
        <mxCell id="f0tiEuDnIObpeq9we8xW-87" style="text;strokeColor=none;fillColor=none;align=left;verticalAlign=middle;spacingLeft=4;spacingRight=4;overflow=hidden;points=[[0,0.5],[1,0.5]];portConstraint=eastwest;rotatable=0;whiteSpace=wrap;html=1;" vertex="1" parent="f0tiEuDnIObpeq9we8xW-75">
          <mxGeometry y="310" width="310" height="60" as="geometry" />
        </mxCell>
      </root>
    </mxGraphModel>
  </diagram>
</mxfile>
